<svg width="272" height="333" viewBox="0 0 272 333" fill="none" xmlns="http://www.w3.org/2000/svg">
<path d="M6.908 302.874C6.908 303.606 6.818 304.266 6.638 304.854C6.458 305.442 6.188 305.943 5.828 306.357C5.474 306.771 5.03 307.089 4.496 307.311C3.962 307.533 3.341 307.644 2.633 307.644C2.309 307.644 1.991 307.623 1.679 307.581C1.367 307.545 1.04 307.485 0.698 307.401C0.716 307.161 0.737 306.921 0.761 306.681C0.785 306.441 0.806 306.201 0.824 305.961C0.842 305.829 0.893 305.724 0.977 305.646C1.067 305.562 1.193 305.52 1.355 305.52C1.457 305.52 1.589 305.541 1.751 305.583C1.919 305.625 2.129 305.646 2.381 305.646C2.723 305.646 3.026 305.598 3.29 305.502C3.554 305.4 3.773 305.241 3.947 305.025C4.127 304.809 4.262 304.53 4.352 304.188C4.442 303.84 4.487 303.42 4.487 302.928V294.486H6.908V302.874ZM13.1195 298.122C13.8035 298.122 14.4245 298.233 14.9825 298.455C15.5465 298.677 16.0265 298.992 16.4225 299.4C16.8245 299.808 17.1335 300.306 17.3495 300.894C17.5655 301.482 17.6735 302.139 17.6735 302.865C17.6735 303.597 17.5655 304.257 17.3495 304.845C17.1335 305.433 16.8245 305.934 16.4225 306.348C16.0265 306.762 15.5465 307.08 14.9825 307.302C14.4245 307.524 13.8035 307.635 13.1195 307.635C12.4295 307.635 11.8025 307.524 11.2385 307.302C10.6745 307.08 10.1915 306.762 9.78955 306.348C9.39355 305.934 9.08455 305.433 8.86255 304.845C8.64655 304.257 8.53855 303.597 8.53855 302.865C8.53855 302.139 8.64655 301.482 8.86255 300.894C9.08455 300.306 9.39355 299.808 9.78955 299.4C10.1915 298.992 10.6745 298.677 11.2385 298.455C11.8025 298.233 12.4295 298.122 13.1195 298.122ZM13.1195 305.925C13.8875 305.925 14.4545 305.667 14.8205 305.151C15.1925 304.635 15.3785 303.879 15.3785 302.883C15.3785 301.887 15.1925 301.128 14.8205 300.606C14.4545 300.084 13.8875 299.823 13.1195 299.823C12.3395 299.823 11.7605 300.087 11.3825 300.615C11.0105 301.137 10.8245 301.893 10.8245 302.883C10.8245 303.873 11.0105 304.629 11.3825 305.151C11.7605 305.667 12.3395 305.925 13.1195 305.925ZM21.5925 299.256C21.9525 298.92 22.3485 298.647 22.7805 298.437C23.2125 298.227 23.7195 298.122 24.3015 298.122C24.8055 298.122 25.2525 298.209 25.6425 298.383C26.0325 298.551 26.3565 298.791 26.6145 299.103C26.8785 299.409 27.0765 299.778 27.2085 300.21C27.3465 300.636 27.4155 301.107 27.4155 301.623V307.5H25.1925V301.623C25.1925 301.059 25.0635 300.624 24.8055 300.318C24.5475 300.006 24.1545 299.85 23.6265 299.85C23.2425 299.85 22.8825 299.937 22.5465 300.111C22.2105 300.285 21.8925 300.522 21.5925 300.822V307.5H19.3695V294.126H21.5925V299.256ZM31.6086 299.4C31.7946 299.214 31.9896 299.043 32.1936 298.887C32.4036 298.725 32.6226 298.59 32.8506 298.482C33.0846 298.368 33.3336 298.281 33.5976 298.221C33.8616 298.155 34.1496 298.122 34.4616 298.122C34.9656 298.122 35.4126 298.209 35.8026 298.383C36.1926 298.551 36.5166 298.791 36.7746 299.103C37.0386 299.409 37.2366 299.778 37.3686 300.21C37.5066 300.636 37.5756 301.107 37.5756 301.623V307.5H35.3526V301.623C35.3526 301.059 35.2236 300.624 34.9656 300.318C34.7076 300.006 34.3146 299.85 33.7866 299.85C33.4026 299.85 33.0426 299.937 32.7066 300.111C32.3706 300.285 32.0526 300.522 31.7526 300.822V307.5H29.5296V298.266H30.8886C31.1766 298.266 31.3656 298.401 31.4556 298.671L31.6086 299.4ZM55.3888 294.486V307.5H52.9588V301.812H46.8478V307.5H44.4178V294.486H46.8478V300.084H52.9588V294.486H55.3888ZM62.5854 303.558C61.9434 303.588 61.4034 303.645 60.9654 303.729C60.5274 303.807 60.1764 303.909 59.9124 304.035C59.6484 304.161 59.4594 304.308 59.3454 304.476C59.2314 304.644 59.1744 304.827 59.1744 305.025C59.1744 305.415 59.2884 305.694 59.5164 305.862C59.7504 306.03 60.0534 306.114 60.4254 306.114C60.8814 306.114 61.2744 306.033 61.6044 305.871C61.9404 305.703 62.2674 305.451 62.5854 305.115V303.558ZM57.4914 299.553C58.5534 298.581 59.8314 298.095 61.3254 298.095C61.8654 298.095 62.3484 298.185 62.7744 298.365C63.2004 298.539 63.5604 298.785 63.8544 299.103C64.1484 299.415 64.3704 299.79 64.5204 300.228C64.6764 300.666 64.7544 301.146 64.7544 301.668V307.5H63.7464C63.5364 307.5 63.3744 307.47 63.2604 307.41C63.1464 307.344 63.0564 307.215 62.9904 307.023L62.7924 306.357C62.5584 306.567 62.3304 306.753 62.1084 306.915C61.8864 307.071 61.6554 307.203 61.4154 307.311C61.1754 307.419 60.9174 307.5 60.6414 307.554C60.3714 307.614 60.0714 307.644 59.7414 307.644C59.3514 307.644 58.9914 307.593 58.6614 307.491C58.3314 307.383 58.0464 307.224 57.8064 307.014C57.5664 306.804 57.3804 306.543 57.2484 306.231C57.1164 305.919 57.0504 305.556 57.0504 305.142C57.0504 304.908 57.0894 304.677 57.1674 304.449C57.2454 304.215 57.3714 303.993 57.5454 303.783C57.7254 303.573 57.9564 303.375 58.2384 303.189C58.5204 303.003 58.8654 302.841 59.2734 302.703C59.6874 302.565 60.1674 302.454 60.7134 302.37C61.2594 302.28 61.8834 302.226 62.5854 302.208V301.668C62.5854 301.05 62.4534 300.594 62.1894 300.3C61.9254 300 61.5444 299.85 61.0464 299.85C60.6864 299.85 60.3864 299.892 60.1464 299.976C59.9124 300.06 59.7054 300.156 59.5254 300.264C59.3454 300.366 59.1804 300.459 59.0304 300.543C58.8864 300.627 58.7244 300.669 58.5444 300.669C58.3884 300.669 58.2564 300.63 58.1484 300.552C58.0404 300.468 57.9534 300.372 57.8874 300.264L57.4914 299.553ZM68.927 299.4C69.113 299.214 69.308 299.043 69.512 298.887C69.722 298.725 69.941 298.59 70.169 298.482C70.403 298.368 70.652 298.281 70.916 298.221C71.18 298.155 71.468 298.122 71.78 298.122C72.284 298.122 72.731 298.209 73.121 298.383C73.511 298.551 73.835 298.791 74.093 299.103C74.357 299.409 74.555 299.778 74.687 300.21C74.825 300.636 74.894 301.107 74.894 301.623V307.5H72.671V301.623C72.671 301.059 72.542 300.624 72.284 300.318C72.026 300.006 71.633 299.85 71.105 299.85C70.721 299.85 70.361 299.937 70.025 300.111C69.689 300.285 69.371 300.522 69.071 300.822V307.5H66.848V298.266H68.207C68.495 298.266 68.684 298.401 68.774 298.671L68.927 299.4ZM82.8042 300.624C82.5522 300.318 82.2762 300.102 81.9762 299.976C81.6822 299.85 81.3642 299.787 81.0222 299.787C80.6862 299.787 80.3832 299.85 80.1132 299.976C79.8432 300.102 79.6122 300.294 79.4202 300.552C79.2282 300.804 79.0812 301.128 78.9792 301.524C78.8772 301.914 78.8262 302.376 78.8262 302.91C78.8262 303.45 78.8682 303.909 78.9522 304.287C79.0422 304.659 79.1682 304.965 79.3302 305.205C79.4922 305.439 79.6902 305.61 79.9242 305.718C80.1582 305.82 80.4192 305.871 80.7072 305.871C81.1692 305.871 81.5622 305.775 81.8862 305.583C82.2102 305.391 82.5162 305.118 82.8042 304.764V300.624ZM85.0272 294.126V307.5H83.6682C83.3742 307.5 83.1882 307.365 83.1102 307.095L82.9212 306.204C82.5492 306.63 82.1202 306.975 81.6342 307.239C81.1542 307.503 80.5932 307.635 79.9512 307.635C79.4472 307.635 78.9852 307.53 78.5652 307.32C78.1452 307.11 77.7822 306.807 77.4762 306.411C77.1762 306.009 76.9422 305.514 76.7742 304.926C76.6122 304.338 76.5312 303.666 76.5312 302.91C76.5312 302.226 76.6242 301.59 76.8102 301.002C76.9962 300.414 77.2632 299.904 77.6112 299.472C77.9592 299.04 78.3762 298.704 78.8622 298.464C79.3482 298.218 79.8942 298.095 80.5002 298.095C81.0162 298.095 81.4572 298.176 81.8232 298.338C82.1892 298.5 82.5162 298.719 82.8042 298.995V294.126H85.0272ZM92.855 300.066C92.795 300.162 92.732 300.231 92.666 300.273C92.6 300.309 92.516 300.327 92.414 300.327C92.306 300.327 92.189 300.297 92.063 300.237C91.943 300.177 91.802 300.111 91.64 300.039C91.478 299.961 91.292 299.892 91.082 299.832C90.878 299.772 90.635 299.742 90.353 299.742C89.915 299.742 89.57 299.835 89.318 300.021C89.072 300.207 88.949 300.45 88.949 300.75C88.949 300.948 89.012 301.116 89.138 301.254C89.27 301.386 89.441 301.503 89.651 301.605C89.867 301.707 90.11 301.8 90.38 301.884C90.65 301.962 90.923 302.049 91.199 302.145C91.481 302.241 91.757 302.352 92.027 302.478C92.297 302.598 92.537 302.754 92.747 302.946C92.963 303.132 93.134 303.357 93.26 303.621C93.392 303.885 93.458 304.203 93.458 304.575C93.458 305.019 93.377 305.43 93.215 305.808C93.059 306.18 92.825 306.504 92.513 306.78C92.201 307.05 91.814 307.263 91.352 307.419C90.896 307.569 90.368 307.644 89.768 307.644C89.45 307.644 89.138 307.614 88.832 307.554C88.532 307.5 88.241 307.422 87.959 307.32C87.683 307.218 87.425 307.098 87.185 306.96C86.951 306.822 86.744 306.672 86.564 306.51L87.077 305.664C87.143 305.562 87.221 305.484 87.311 305.43C87.401 305.376 87.515 305.349 87.653 305.349C87.791 305.349 87.92 305.388 88.04 305.466C88.166 305.544 88.31 305.628 88.472 305.718C88.634 305.808 88.823 305.892 89.039 305.97C89.261 306.048 89.54 306.087 89.876 306.087C90.14 306.087 90.365 306.057 90.551 305.997C90.743 305.931 90.899 305.847 91.019 305.745C91.145 305.643 91.235 305.526 91.289 305.394C91.349 305.256 91.379 305.115 91.379 304.971C91.379 304.755 91.313 304.578 91.181 304.44C91.055 304.302 90.884 304.182 90.668 304.08C90.458 303.978 90.215 303.888 89.939 303.81C89.669 303.726 89.39 303.636 89.102 303.54C88.82 303.444 88.541 303.333 88.265 303.207C87.995 303.075 87.752 302.91 87.536 302.712C87.326 302.514 87.155 302.271 87.023 301.983C86.897 301.695 86.834 301.347 86.834 300.939C86.834 300.561 86.909 300.201 87.059 299.859C87.209 299.517 87.428 299.22 87.716 298.968C88.01 298.71 88.373 298.506 88.805 298.356C89.243 298.2 89.747 298.122 90.317 298.122C90.953 298.122 91.532 298.227 92.054 298.437C92.576 298.647 93.011 298.923 93.359 299.265L92.855 300.066ZM99.2172 298.122C99.9012 298.122 100.522 298.233 101.08 298.455C101.644 298.677 102.124 298.992 102.52 299.4C102.922 299.808 103.231 300.306 103.447 300.894C103.663 301.482 103.771 302.139 103.771 302.865C103.771 303.597 103.663 304.257 103.447 304.845C103.231 305.433 102.922 305.934 102.52 306.348C102.124 306.762 101.644 307.08 101.08 307.302C100.522 307.524 99.9012 307.635 99.2172 307.635C98.5272 307.635 97.9002 307.524 97.3362 307.302C96.7722 307.08 96.2892 306.762 95.8872 306.348C95.4912 305.934 95.1822 305.433 94.9602 304.845C94.7442 304.257 94.6362 303.597 94.6362 302.865C94.6362 302.139 94.7442 301.482 94.9602 300.894C95.1822 300.306 95.4912 299.808 95.8872 299.4C96.2892 298.992 96.7722 298.677 97.3362 298.455C97.9002 298.233 98.5272 298.122 99.2172 298.122ZM99.2172 305.925C99.9852 305.925 100.552 305.667 100.918 305.151C101.29 304.635 101.476 303.879 101.476 302.883C101.476 301.887 101.29 301.128 100.918 300.606C100.552 300.084 99.9852 299.823 99.2172 299.823C98.4372 299.823 97.8582 300.087 97.4802 300.615C97.1082 301.137 96.9222 301.893 96.9222 302.883C96.9222 303.873 97.1082 304.629 97.4802 305.151C97.8582 305.667 98.4372 305.925 99.2172 305.925ZM107.546 299.4C107.732 299.214 107.927 299.043 108.131 298.887C108.341 298.725 108.56 298.59 108.788 298.482C109.022 298.368 109.271 298.281 109.535 298.221C109.799 298.155 110.087 298.122 110.399 298.122C110.903 298.122 111.35 298.209 111.74 298.383C112.13 298.551 112.454 298.791 112.712 299.103C112.976 299.409 113.174 299.778 113.306 300.21C113.444 300.636 113.513 301.107 113.513 301.623V307.5H111.29V301.623C111.29 301.059 111.161 300.624 110.903 300.318C110.645 300.006 110.252 299.85 109.724 299.85C109.34 299.85 108.98 299.937 108.644 300.111C108.308 300.285 107.99 300.522 107.69 300.822V307.5H105.467V298.266H106.826C107.114 298.266 107.303 298.401 107.393 298.671L107.546 299.4Z" fill="#282528"/>
<path d="M9.338 327.717V328.5H2.381V315.765H3.308V327.717H9.338ZM16.4846 323.118C16.4846 322.638 16.4156 322.209 16.2776 321.831C16.1456 321.447 15.9566 321.123 15.7106 320.859C15.4646 320.595 15.1706 320.394 14.8286 320.256C14.4926 320.112 14.1206 320.04 13.7126 320.04C13.2506 320.04 12.8366 320.112 12.4706 320.256C12.1046 320.4 11.7866 320.607 11.5166 320.877C11.2526 321.147 11.0396 321.471 10.8776 321.849C10.7156 322.227 10.6076 322.65 10.5536 323.118H16.4846ZM10.5086 323.667V323.838C10.5086 324.51 10.5866 325.101 10.7426 325.611C10.8986 326.121 11.1206 326.55 11.4086 326.898C11.6966 327.24 12.0446 327.498 12.4526 327.672C12.8606 327.846 13.3166 327.933 13.8206 327.933C14.2706 327.933 14.6606 327.885 14.9906 327.789C15.3206 327.687 15.5966 327.576 15.8186 327.456C16.0466 327.33 16.2266 327.219 16.3586 327.123C16.4906 327.021 16.5866 326.97 16.6466 326.97C16.7246 326.97 16.7846 327 16.8266 327.06L17.0606 327.348C16.9166 327.528 16.7246 327.696 16.4846 327.852C16.2506 328.008 15.9866 328.143 15.6926 328.257C15.4046 328.365 15.0926 328.452 14.7566 328.518C14.4266 328.584 14.0936 328.617 13.7576 328.617C13.1456 328.617 12.5876 328.512 12.0836 328.302C11.5796 328.086 11.1476 327.774 10.7876 327.366C10.4276 326.958 10.1486 326.46 9.95056 325.872C9.75856 325.278 9.66256 324.6 9.66256 323.838C9.66256 323.196 9.75256 322.605 9.93256 322.065C10.1186 321.519 10.3826 321.051 10.7246 320.661C11.0726 320.265 11.4956 319.956 11.9936 319.734C12.4976 319.512 13.0676 319.401 13.7036 319.401C14.2076 319.401 14.6756 319.488 15.1076 319.662C15.5396 319.836 15.9146 320.091 16.2326 320.427C16.5506 320.757 16.7996 321.165 16.9796 321.651C17.1656 322.137 17.2586 322.695 17.2586 323.325C17.2586 323.457 17.2406 323.547 17.2046 323.595C17.1686 323.643 17.1086 323.667 17.0246 323.667H10.5086ZM24.6023 324.171C23.7503 324.201 23.0153 324.27 22.3973 324.378C21.7853 324.48 21.2783 324.621 20.8763 324.801C20.4803 324.981 20.1863 325.197 19.9943 325.449C19.8023 325.695 19.7063 325.977 19.7063 326.295C19.7063 326.595 19.7543 326.856 19.8503 327.078C19.9523 327.294 20.0843 327.474 20.2463 327.618C20.4143 327.756 20.6063 327.858 20.8223 327.924C21.0383 327.99 21.2633 328.023 21.4973 328.023C21.8453 328.023 22.1633 327.987 22.4513 327.915C22.7453 327.837 23.0153 327.732 23.2613 327.6C23.5133 327.462 23.7473 327.3 23.9633 327.114C24.1793 326.928 24.3923 326.727 24.6023 326.511V324.171ZM19.3373 320.814C19.8053 320.346 20.2973 319.992 20.8133 319.752C21.3293 319.512 21.9143 319.392 22.5683 319.392C23.0483 319.392 23.4683 319.47 23.8283 319.626C24.1883 319.776 24.4853 319.995 24.7193 320.283C24.9593 320.565 25.1393 320.91 25.2593 321.318C25.3793 321.72 25.4393 322.17 25.4393 322.668V328.5H25.0973C24.9173 328.5 24.8063 328.416 24.7643 328.248L24.6383 327.096C24.3923 327.336 24.1463 327.552 23.9003 327.744C23.6603 327.936 23.4083 328.098 23.1443 328.23C22.8803 328.362 22.5953 328.464 22.2893 328.536C21.9833 328.608 21.6473 328.644 21.2813 328.644C20.9753 328.644 20.6783 328.599 20.3903 328.509C20.1023 328.419 19.8443 328.281 19.6163 328.095C19.3943 327.909 19.2143 327.672 19.0763 327.384C18.9443 327.09 18.8783 326.739 18.8783 326.331C18.8783 325.953 18.9863 325.602 19.2023 325.278C19.4183 324.954 19.7573 324.672 20.2193 324.432C20.6813 324.192 21.2723 324 21.9923 323.856C22.7183 323.712 23.5883 323.628 24.6023 323.604V322.668C24.6023 321.84 24.4223 321.204 24.0623 320.76C23.7083 320.31 23.1803 320.085 22.4783 320.085C22.0463 320.085 21.6773 320.145 21.3713 320.265C21.0713 320.385 20.8163 320.517 20.6063 320.661C20.3963 320.805 20.2253 320.937 20.0933 321.057C19.9613 321.177 19.8503 321.237 19.7603 321.237C19.6943 321.237 19.6403 321.222 19.5983 321.192C19.5563 321.162 19.5203 321.123 19.4903 321.075L19.3373 320.814ZM34.419 321.471C34.077 320.955 33.696 320.592 33.276 320.382C32.862 320.172 32.388 320.067 31.854 320.067C31.326 320.067 30.864 320.163 30.468 320.355C30.072 320.547 29.739 320.82 29.469 321.174C29.205 321.522 29.004 321.942 28.866 322.434C28.734 322.92 28.668 323.457 28.668 324.045C28.668 325.377 28.911 326.358 29.397 326.988C29.889 327.612 30.597 327.924 31.521 327.924C32.109 327.924 32.646 327.771 33.132 327.465C33.618 327.159 34.047 326.73 34.419 326.178V321.471ZM35.274 315.405V328.5H34.806C34.65 328.5 34.56 328.422 34.536 328.266L34.446 326.853C34.05 327.393 33.588 327.822 33.06 328.14C32.532 328.458 31.938 328.617 31.278 328.617C30.174 328.617 29.316 328.236 28.704 327.474C28.092 326.712 27.786 325.569 27.786 324.045C27.786 323.391 27.87 322.782 28.038 322.218C28.212 321.648 28.464 321.156 28.794 320.742C29.124 320.322 29.529 319.992 30.009 319.752C30.495 319.512 31.053 319.392 31.683 319.392C32.289 319.392 32.814 319.503 33.258 319.725C33.702 319.947 34.089 320.277 34.419 320.715V315.405H35.274ZM49.2198 321.471C48.8778 320.955 48.4968 320.592 48.0768 320.382C47.6628 320.172 47.1888 320.067 46.6548 320.067C46.1268 320.067 45.6648 320.163 45.2688 320.355C44.8728 320.547 44.5398 320.82 44.2698 321.174C44.0058 321.522 43.8048 321.942 43.6668 322.434C43.5348 322.92 43.4688 323.457 43.4688 324.045C43.4688 325.377 43.7118 326.358 44.1978 326.988C44.6898 327.612 45.3978 327.924 46.3218 327.924C46.9098 327.924 47.4468 327.771 47.9328 327.465C48.4188 327.159 48.8478 326.73 49.2198 326.178V321.471ZM50.0748 315.405V328.5H49.6068C49.4508 328.5 49.3608 328.422 49.3368 328.266L49.2468 326.853C48.8508 327.393 48.3888 327.822 47.8608 328.14C47.3328 328.458 46.7388 328.617 46.0788 328.617C44.9748 328.617 44.1168 328.236 43.5048 327.474C42.8928 326.712 42.5868 325.569 42.5868 324.045C42.5868 323.391 42.6708 322.782 42.8388 322.218C43.0128 321.648 43.2648 321.156 43.5948 320.742C43.9248 320.322 44.3298 319.992 44.8098 319.752C45.2958 319.512 45.8538 319.392 46.4838 319.392C47.0898 319.392 47.6148 319.503 48.0588 319.725C48.5028 319.947 48.8898 320.277 49.2198 320.715V315.405H50.0748ZM59.3049 323.118C59.3049 322.638 59.2359 322.209 59.0979 321.831C58.9659 321.447 58.7769 321.123 58.5309 320.859C58.2849 320.595 57.9909 320.394 57.6489 320.256C57.3129 320.112 56.9409 320.04 56.5329 320.04C56.0709 320.04 55.6569 320.112 55.2909 320.256C54.9249 320.4 54.6069 320.607 54.3369 320.877C54.0729 321.147 53.8599 321.471 53.6979 321.849C53.5359 322.227 53.4279 322.65 53.3739 323.118H59.3049ZM53.3289 323.667V323.838C53.3289 324.51 53.4069 325.101 53.5629 325.611C53.7189 326.121 53.9409 326.55 54.2289 326.898C54.5169 327.24 54.8649 327.498 55.2729 327.672C55.6809 327.846 56.1369 327.933 56.6409 327.933C57.0909 327.933 57.4809 327.885 57.8109 327.789C58.1409 327.687 58.4169 327.576 58.6389 327.456C58.8669 327.33 59.0469 327.219 59.1789 327.123C59.3109 327.021 59.4069 326.97 59.4669 326.97C59.5449 326.97 59.6049 327 59.6469 327.06L59.8809 327.348C59.7369 327.528 59.5449 327.696 59.3049 327.852C59.0709 328.008 58.8069 328.143 58.5129 328.257C58.2249 328.365 57.9129 328.452 57.5769 328.518C57.2469 328.584 56.9139 328.617 56.5779 328.617C55.9659 328.617 55.4079 328.512 54.9039 328.302C54.3999 328.086 53.9679 327.774 53.6079 327.366C53.2479 326.958 52.9689 326.46 52.7709 325.872C52.5789 325.278 52.4829 324.6 52.4829 323.838C52.4829 323.196 52.5729 322.605 52.7529 322.065C52.9389 321.519 53.2029 321.051 53.5449 320.661C53.8929 320.265 54.3159 319.956 54.8139 319.734C55.3179 319.512 55.8879 319.401 56.5239 319.401C57.0279 319.401 57.4959 319.488 57.9279 319.662C58.3599 319.836 58.7349 320.091 59.0529 320.427C59.3709 320.757 59.6199 321.165 59.7999 321.651C59.9859 322.137 60.0789 322.695 60.0789 323.325C60.0789 323.457 60.0609 323.547 60.0249 323.595C59.9889 323.643 59.9289 323.667 59.8449 323.667H53.3289ZM67.3326 320.652C67.2846 320.736 67.2156 320.778 67.1256 320.778C67.0596 320.778 66.9756 320.742 66.8736 320.67C66.7716 320.592 66.6336 320.508 66.4596 320.418C66.2916 320.322 66.0816 320.238 65.8296 320.166C65.5776 320.088 65.2716 320.049 64.9116 320.049C64.5876 320.049 64.2906 320.097 64.0206 320.193C63.7566 320.283 63.5286 320.406 63.3366 320.562C63.1506 320.718 63.0066 320.901 62.9046 321.111C62.8026 321.315 62.7516 321.531 62.7516 321.759C62.7516 322.041 62.8236 322.275 62.9676 322.461C63.1116 322.647 63.2976 322.806 63.5256 322.938C63.7596 323.07 64.0266 323.184 64.3266 323.28C64.6266 323.376 64.9296 323.472 65.2356 323.568C65.5476 323.664 65.8536 323.772 66.1536 323.892C66.4536 324.006 66.7176 324.15 66.9456 324.324C67.1796 324.498 67.3686 324.711 67.5126 324.963C67.6566 325.215 67.7286 325.521 67.7286 325.881C67.7286 326.271 67.6596 326.634 67.5216 326.97C67.3836 327.306 67.1796 327.597 66.9096 327.843C66.6456 328.089 66.3186 328.284 65.9286 328.428C65.5386 328.572 65.0916 328.644 64.5876 328.644C63.9576 328.644 63.4146 328.545 62.9586 328.347C62.5026 328.143 62.0946 327.879 61.7346 327.555L61.9326 327.249C61.9626 327.201 61.9956 327.165 62.0316 327.141C62.0736 327.117 62.1276 327.105 62.1936 327.105C62.2716 327.105 62.3646 327.153 62.4726 327.249C62.5866 327.345 62.7366 327.45 62.9226 327.564C63.1086 327.672 63.3366 327.774 63.6066 327.87C63.8826 327.966 64.2216 328.014 64.6236 328.014C65.0016 328.014 65.3346 327.963 65.6226 327.861C65.9106 327.753 66.1506 327.609 66.3426 327.429C66.5346 327.249 66.6786 327.039 66.7746 326.799C66.8766 326.553 66.9276 326.295 66.9276 326.025C66.9276 325.725 66.8556 325.476 66.7116 325.278C66.5676 325.08 66.3786 324.912 66.1446 324.774C65.9106 324.636 65.6436 324.519 65.3436 324.423C65.0496 324.327 64.7466 324.231 64.4346 324.135C64.1226 324.039 63.8166 323.934 63.5166 323.82C63.2226 323.706 62.9586 323.562 62.7246 323.388C62.4906 323.214 62.3016 323.004 62.1576 322.758C62.0136 322.506 61.9416 322.194 61.9416 321.822C61.9416 321.504 62.0106 321.198 62.1486 320.904C62.2866 320.61 62.4816 320.352 62.7336 320.13C62.9916 319.908 63.3036 319.731 63.6696 319.599C64.0356 319.467 64.4466 319.401 64.9026 319.401C65.4486 319.401 65.9316 319.479 66.3516 319.635C66.7776 319.791 67.1646 320.031 67.5126 320.355L67.3326 320.652ZM71.0101 319.545V328.5H70.1551V319.545H71.0101ZM71.3791 316.458C71.3791 316.566 71.3551 316.668 71.3071 316.764C71.2651 316.854 71.2081 316.935 71.1361 317.007C71.0641 317.079 70.9801 317.136 70.8841 317.178C70.7881 317.22 70.6861 317.241 70.5781 317.241C70.4701 317.241 70.3681 317.22 70.2721 317.178C70.1761 317.136 70.0921 317.079 70.0201 317.007C69.9481 316.935 69.8911 316.854 69.8491 316.764C69.8071 316.668 69.7861 316.566 69.7861 316.458C69.7861 316.35 69.8071 316.248 69.8491 316.152C69.8911 316.05 69.9481 315.963 70.0201 315.891C70.0921 315.819 70.1761 315.762 70.2721 315.72C70.3681 315.678 70.4701 315.657 70.5781 315.657C70.6861 315.657 70.7881 315.678 70.8841 315.72C70.9801 315.762 71.0641 315.819 71.1361 315.891C71.2081 315.963 71.2651 316.05 71.3071 316.152C71.3551 316.248 71.3791 316.35 71.3791 316.458ZM76.9889 324.54C77.3729 324.54 77.7149 324.486 78.0149 324.378C78.3149 324.264 78.5669 324.108 78.7709 323.91C78.9749 323.712 79.1309 323.475 79.2389 323.199C79.3469 322.923 79.4009 322.617 79.4009 322.281C79.4009 321.945 79.3439 321.639 79.2299 321.363C79.1219 321.081 78.9629 320.841 78.7529 320.643C78.5489 320.445 78.2969 320.292 77.9969 320.184C77.7029 320.076 77.3669 320.022 76.9889 320.022C76.6109 320.022 76.2719 320.076 75.9719 320.184C75.6779 320.292 75.4259 320.445 75.2159 320.643C75.0119 320.841 74.8559 321.081 74.7479 321.363C74.6399 321.639 74.5859 321.945 74.5859 322.281C74.5859 322.617 74.6399 322.923 74.7479 323.199C74.8559 323.475 75.0119 323.712 75.2159 323.91C75.4259 324.108 75.6779 324.264 75.9719 324.378C76.2719 324.486 76.6109 324.54 76.9889 324.54ZM80.3369 329.103C80.3369 328.821 80.2619 328.596 80.1119 328.428C79.9679 328.254 79.7729 328.119 79.5269 328.023C79.2809 327.927 78.9959 327.861 78.6719 327.825C78.3539 327.783 78.0179 327.753 77.6639 327.735C77.3159 327.717 76.9649 327.699 76.6109 327.681C76.2569 327.663 75.9239 327.627 75.6119 327.573C75.3839 327.663 75.1739 327.768 74.9819 327.888C74.7899 328.002 74.6249 328.134 74.4869 328.284C74.3489 328.434 74.2409 328.596 74.1629 328.77C74.0849 328.95 74.0459 329.142 74.0459 329.346C74.0459 329.61 74.1119 329.853 74.2439 330.075C74.3819 330.303 74.5799 330.498 74.8379 330.66C75.1019 330.828 75.4229 330.96 75.8009 331.056C76.1789 331.152 76.6139 331.2 77.1059 331.2C77.5619 331.2 77.9849 331.149 78.3749 331.047C78.7709 330.945 79.1129 330.801 79.4009 330.615C79.6949 330.429 79.9229 330.207 80.0849 329.949C80.2529 329.691 80.3369 329.409 80.3369 329.103ZM81.2729 319.941V320.238C81.2729 320.37 81.1889 320.451 81.0209 320.481L79.6529 320.58C79.8209 320.808 79.9499 321.063 80.0399 321.345C80.1299 321.627 80.1749 321.933 80.1749 322.263C80.1749 322.695 80.0969 323.088 79.9409 323.442C79.7909 323.79 79.5749 324.09 79.2929 324.342C79.0169 324.588 78.6809 324.78 78.2849 324.918C77.8949 325.056 77.4629 325.125 76.9889 325.125C76.4789 325.125 76.0139 325.047 75.5939 324.891C75.3419 325.035 75.1409 325.206 74.9909 325.404C74.8469 325.596 74.7749 325.788 74.7749 325.98C74.7749 326.238 74.8649 326.436 75.0449 326.574C75.2309 326.712 75.4709 326.814 75.7649 326.88C76.0649 326.94 76.4039 326.979 76.7819 326.997C77.1659 327.015 77.5559 327.036 77.9519 327.06C78.3479 327.078 78.7349 327.114 79.1129 327.168C79.4969 327.222 79.8359 327.318 80.1299 327.456C80.4299 327.588 80.6699 327.777 80.8499 328.023C81.0359 328.263 81.1289 328.584 81.1289 328.986C81.1289 329.358 81.0359 329.715 80.8499 330.057C80.6639 330.399 80.3939 330.702 80.0399 330.966C79.6919 331.23 79.2689 331.44 78.7709 331.596C78.2729 331.758 77.7149 331.839 77.0969 331.839C76.4669 331.839 75.9149 331.773 75.4409 331.641C74.9669 331.515 74.5679 331.341 74.2439 331.119C73.9259 330.903 73.6859 330.651 73.5239 330.363C73.3619 330.075 73.2809 329.769 73.2809 329.445C73.2809 328.971 73.4369 328.566 73.7489 328.23C74.0609 327.888 74.4869 327.621 75.0269 327.429C74.7269 327.327 74.4839 327.18 74.2979 326.988C74.1179 326.79 74.0279 326.523 74.0279 326.187C74.0279 326.061 74.0519 325.929 74.0999 325.791C74.1479 325.653 74.2199 325.518 74.3159 325.386C74.4119 325.248 74.5289 325.119 74.6669 324.999C74.8049 324.879 74.9609 324.771 75.1349 324.675C74.7089 324.429 74.3759 324.102 74.1359 323.694C73.9019 323.286 73.7849 322.809 73.7849 322.263C73.7849 321.831 73.8599 321.441 74.0099 321.093C74.1659 320.739 74.3849 320.436 74.6669 320.184C74.9489 319.932 75.2849 319.737 75.6749 319.599C76.0709 319.461 76.5089 319.392 76.9889 319.392C77.3849 319.392 77.7479 319.44 78.0779 319.536C78.4139 319.632 78.7139 319.767 78.9779 319.941H81.2729ZM84.0763 321.111C84.4903 320.595 84.9673 320.181 85.5073 319.869C86.0533 319.557 86.6593 319.401 87.3253 319.401C87.8173 319.401 88.2493 319.479 88.6213 319.635C88.9993 319.791 89.3113 320.016 89.5573 320.31C89.8033 320.604 89.9893 320.958 90.1153 321.372C90.2413 321.786 90.3043 322.254 90.3043 322.776V328.5H89.4403V322.776C89.4403 321.936 89.2483 321.279 88.8643 320.805C88.4803 320.325 87.8953 320.085 87.1093 320.085C86.5273 320.085 85.9813 320.235 85.4713 320.535C84.9673 320.829 84.5173 321.24 84.1213 321.768V328.5H83.2573V319.545H83.7343C83.8843 319.545 83.9713 319.62 83.9953 319.77L84.0763 321.111ZM99.4357 323.118C99.4357 322.638 99.3667 322.209 99.2287 321.831C99.0967 321.447 98.9077 321.123 98.6617 320.859C98.4157 320.595 98.1217 320.394 97.7797 320.256C97.4437 320.112 97.0717 320.04 96.6637 320.04C96.2017 320.04 95.7877 320.112 95.4217 320.256C95.0557 320.4 94.7377 320.607 94.4677 320.877C94.2037 321.147 93.9907 321.471 93.8287 321.849C93.6667 322.227 93.5587 322.65 93.5047 323.118H99.4357ZM93.4597 323.667V323.838C93.4597 324.51 93.5377 325.101 93.6937 325.611C93.8497 326.121 94.0717 326.55 94.3597 326.898C94.6477 327.24 94.9957 327.498 95.4037 327.672C95.8117 327.846 96.2677 327.933 96.7717 327.933C97.2217 327.933 97.6117 327.885 97.9417 327.789C98.2717 327.687 98.5477 327.576 98.7697 327.456C98.9977 327.33 99.1777 327.219 99.3097 327.123C99.4417 327.021 99.5377 326.97 99.5977 326.97C99.6757 326.97 99.7357 327 99.7777 327.06L100.012 327.348C99.8677 327.528 99.6757 327.696 99.4357 327.852C99.2017 328.008 98.9377 328.143 98.6437 328.257C98.3557 328.365 98.0437 328.452 97.7077 328.518C97.3777 328.584 97.0447 328.617 96.7087 328.617C96.0967 328.617 95.5387 328.512 95.0347 328.302C94.5307 328.086 94.0987 327.774 93.7387 327.366C93.3787 326.958 93.0997 326.46 92.9017 325.872C92.7097 325.278 92.6137 324.6 92.6137 323.838C92.6137 323.196 92.7037 322.605 92.8837 322.065C93.0697 321.519 93.3337 321.051 93.6757 320.661C94.0237 320.265 94.4467 319.956 94.9447 319.734C95.4487 319.512 96.0187 319.401 96.6547 319.401C97.1587 319.401 97.6267 319.488 98.0587 319.662C98.4907 319.836 98.8657 320.091 99.1837 320.427C99.5017 320.757 99.7507 321.165 99.9307 321.651C100.117 322.137 100.21 322.695 100.21 323.325C100.21 323.457 100.192 323.547 100.156 323.595C100.12 323.643 100.06 323.667 99.9757 323.667H93.4597ZM103.359 321.705C103.497 321.339 103.653 321.015 103.827 320.733C104.007 320.445 104.211 320.202 104.439 320.004C104.673 319.806 104.931 319.656 105.213 319.554C105.501 319.446 105.819 319.392 106.167 319.392C106.353 319.392 106.536 319.41 106.716 319.446C106.896 319.476 107.055 319.533 107.193 319.617L107.121 320.211C107.091 320.307 107.034 320.355 106.95 320.355C106.878 320.355 106.767 320.334 106.617 320.292C106.473 320.25 106.281 320.229 106.041 320.229C105.693 320.229 105.384 320.283 105.114 320.391C104.85 320.493 104.61 320.649 104.394 320.859C104.184 321.069 103.998 321.33 103.836 321.642C103.68 321.948 103.536 322.302 103.404 322.704V328.5H102.54V319.545H102.999C103.101 319.545 103.173 319.566 103.215 319.608C103.257 319.65 103.284 319.722 103.296 319.824L103.359 321.705Z" fill="#646464"/>
<rect x="1.5" y="0.5" width="270" height="270" fill="#18B5DC"/>
<rect width="41.9999" height="42" transform="translate(68.5 114.5)" fill="#5DCBE6"/>
<path d="M97.4441 131.426C97.4568 131.604 97.4568 131.782 97.4568 131.959C97.4568 137.378 93.3325 143.622 85.7944 143.622C83.4721 143.622 81.3147 142.949 79.5 141.782C79.83 141.82 80.1472 141.832 80.4898 141.832C82.4061 141.832 84.17 141.185 85.5787 140.081C83.7766 140.043 82.2665 138.863 81.7462 137.239C82 137.277 82.2538 137.302 82.5203 137.302C82.8883 137.302 83.2564 137.251 83.599 137.162C81.7208 136.782 80.3121 135.132 80.3121 133.14V133.089C80.8578 133.393 81.4924 133.584 82.1649 133.609C81.0609 132.873 80.3375 131.617 80.3375 130.195C80.3375 129.434 80.5405 128.736 80.8959 128.127C82.9137 130.614 85.9467 132.239 89.3477 132.416C89.2842 132.112 89.2461 131.794 89.2461 131.477C89.2461 129.218 91.0736 127.378 93.3451 127.378C94.5253 127.378 95.5913 127.873 96.34 128.673C97.2664 128.495 98.1547 128.152 98.9416 127.683C98.637 128.635 97.9898 129.434 97.1395 129.942C97.9644 129.853 98.7639 129.624 99.4999 129.307C98.9416 130.119 98.2436 130.843 97.4441 131.426Z" fill="white"/>
<rect width="42" height="42" transform="translate(114.5 114.5)" fill="#5DCBE6"/>
<path d="M140.154 136.75L140.709 133.13H137.236V130.782C137.236 129.791 137.721 128.826 139.277 128.826H140.856V125.745C140.856 125.745 139.423 125.5 138.053 125.5C135.193 125.5 133.323 127.234 133.323 130.372V133.13H130.144V136.75H133.323V145.5H137.236V136.75H140.154Z" fill="white"/>
<rect width="42.0045" height="42" transform="translate(160.5 114.5)" fill="#5DCBE6"/>
<path d="M181.504 130.372C178.666 130.372 176.377 132.662 176.377 135.5C176.377 138.338 178.666 140.628 181.504 140.628C184.343 140.628 186.632 138.338 186.632 135.5C186.632 132.662 184.343 130.372 181.504 130.372ZM181.504 138.834C179.67 138.834 178.171 137.339 178.171 135.5C178.171 133.661 179.666 132.166 181.504 132.166C183.343 132.166 184.838 133.661 184.838 135.5C184.838 137.339 183.339 138.834 181.504 138.834ZM188.038 130.163C188.038 130.827 187.502 131.359 186.842 131.359C186.177 131.359 185.646 130.823 185.646 130.163C185.646 129.502 186.181 128.966 186.842 128.966C187.502 128.966 188.038 129.502 188.038 130.163ZM191.434 131.376C191.358 129.774 190.992 128.355 189.819 127.186C188.649 126.017 187.23 125.651 185.628 125.57C183.977 125.477 179.028 125.477 177.376 125.57C175.779 125.646 174.359 126.012 173.186 127.181C172.012 128.351 171.651 129.77 171.57 131.372C171.477 133.023 171.477 137.972 171.57 139.624C171.646 141.226 172.012 142.645 173.186 143.814C174.359 144.983 175.774 145.349 177.376 145.43C179.028 145.523 183.977 145.523 185.628 145.43C187.23 145.354 188.649 144.988 189.819 143.814C190.988 142.645 191.354 141.226 191.434 139.624C191.528 137.972 191.528 133.028 191.434 131.376ZM189.301 141.395C188.953 142.27 188.279 142.944 187.4 143.297C186.083 143.819 182.959 143.698 181.504 143.698C180.05 143.698 176.921 143.814 175.609 143.297C174.734 142.948 174.06 142.275 173.708 141.395C173.186 140.079 173.306 136.955 173.306 135.5C173.306 134.045 173.19 130.917 173.708 129.605C174.056 128.73 174.73 128.056 175.609 127.704C176.926 127.181 180.05 127.302 181.504 127.302C182.959 127.302 186.088 127.186 187.4 127.704C188.274 128.052 188.948 128.725 189.301 129.605C189.823 130.921 189.703 134.045 189.703 135.5C189.703 136.955 189.823 140.083 189.301 141.395Z" fill="white"/>
</svg>
