<svg width="250" height="42" viewBox="0 0 250 42" fill="none" xmlns="http://www.w3.org/2000/svg">
<rect x="0.493301" y="0.5" width="41" height="41" fill="white"/>
<rect x="0.493301" y="0.5" width="41" height="41" stroke="#18B5DC"/>
<path d="M28.9375 16.9264C28.9502 17.104 28.9502 17.2817 28.9502 17.4594C28.9502 22.8781 24.8258 29.1218 17.2878 29.1218C14.9654 29.1218 12.8081 28.4492 10.9933 27.2817C11.3233 27.3198 11.6405 27.3325 11.9832 27.3325C13.8994 27.3325 15.6634 26.6853 17.072 25.5812C15.27 25.5431 13.7598 24.3629 13.2395 22.7386C13.4933 22.7766 13.7471 22.802 14.0137 22.802C14.3817 22.802 14.7497 22.7512 15.0923 22.6624C13.2142 22.2817 11.8055 20.632 11.8055 18.6396V18.5888C12.3512 18.8934 12.9857 19.0838 13.6583 19.1091C12.5542 18.3731 11.8309 17.1167 11.8309 15.6954C11.8309 14.934 12.0339 14.236 12.3892 13.6269C14.407 16.1142 17.44 17.7385 20.841 17.9162C20.7776 17.6117 20.7395 17.2944 20.7395 16.9772C20.7395 14.7183 22.5669 12.8782 24.8385 12.8782C26.0187 12.8782 27.0846 13.3731 27.8334 14.1726C28.7598 13.9949 29.6481 13.6523 30.4349 13.1827C30.1303 14.1345 29.4831 14.934 28.6329 15.4416C29.4578 15.3528 30.2573 15.1243 30.9933 14.8071C30.435 15.6193 29.737 16.3426 28.9375 16.9264Z" fill="#18B5DC"/>
<rect x="52.4933" y="0.5" width="41" height="41" fill="white"/>
<rect x="52.4933" y="0.5" width="41" height="41" stroke="#18B5DC"/>
<path d="M77.7725 22.25L78.3429 18.6305H74.7764V16.2816C74.7764 15.2914 75.2746 14.3262 76.8719 14.3262H78.4933V11.2445C78.4933 11.2445 77.0219 11 75.6151 11C72.678 11 70.7582 12.7336 70.7582 15.8719V18.6305H67.4933V22.25H70.7582V31H74.7764V22.25H77.7725Z" fill="#18B5DC"/>
<rect x="0.5" y="-0.5" width="41.0045" height="41" transform="matrix(1 0 0 -1 103.993 41)" fill="white"/>
<rect x="0.5" y="-0.5" width="41.0045" height="41" transform="matrix(1 0 0 -1 103.993 41)" stroke="#18B5DC"/>
<path d="M124.998 26.1277C122.159 26.1277 119.87 23.8383 119.87 21C119.87 18.1617 122.159 15.8723 124.998 15.8723C127.836 15.8723 130.126 18.1617 130.126 21C130.126 23.8383 127.836 26.1277 124.998 26.1277ZM124.998 17.6663C123.164 17.6663 121.664 19.1613 121.664 21C121.664 22.8387 123.159 24.3337 124.998 24.3337C126.836 24.3337 128.331 22.8387 128.331 21C128.331 19.1613 126.832 17.6663 124.998 17.6663ZM131.531 26.3375C131.531 25.6725 130.996 25.1415 130.335 25.1415C129.67 25.1415 129.139 25.677 129.139 26.3375C129.139 26.998 129.675 27.5335 130.335 27.5335C130.996 27.5335 131.531 26.998 131.531 26.3375ZM134.927 25.1236C134.852 26.7258 134.486 28.1449 133.312 29.3142C132.143 30.4834 130.724 30.8494 129.121 30.9297C127.47 31.0234 122.521 31.0234 120.87 30.9297C119.272 30.8538 117.853 30.4879 116.679 29.3186C115.505 28.1494 115.144 26.7302 115.064 25.1281C114.97 23.4768 114.97 18.5276 115.064 16.8764C115.139 15.2742 115.505 13.8551 116.679 12.6858C117.853 11.5166 119.268 11.1506 120.87 11.0703C122.521 10.9766 127.47 10.9766 129.121 11.0703C130.724 11.1462 132.143 11.5121 133.312 12.6858C134.481 13.8551 134.847 15.2742 134.927 16.8764C135.021 18.5276 135.021 23.4724 134.927 25.1236ZM132.794 15.1047C132.446 14.2299 131.772 13.5561 130.893 13.2035C129.577 12.6814 126.453 12.8019 124.998 12.8019C123.543 12.8019 120.414 12.6858 119.102 13.2035C118.228 13.5516 117.554 14.2255 117.201 15.1047C116.679 16.4212 116.8 19.5451 116.8 21C116.8 22.4549 116.684 25.5833 117.201 26.8953C117.549 27.7701 118.223 28.4439 119.102 28.7965C120.419 29.3186 123.543 29.1981 124.998 29.1981C126.453 29.1981 129.581 29.3142 130.893 28.7965C131.768 28.4484 132.442 27.7745 132.794 26.8953C133.316 25.5788 133.196 22.4549 133.196 21C133.196 19.5451 133.316 16.4167 132.794 15.1047Z" fill="#18B5DC"/>
<rect x="0.5" y="-0.5" width="41.0045" height="41" transform="matrix(1 0 0 -1 155.998 41)" fill="white"/>
<rect x="0.5" y="-0.5" width="41.0045" height="41" transform="matrix(1 0 0 -1 155.998 41)" stroke="#18B5DC"/>
<path d="M171.477 31H167.33V17.647H171.477V31ZM169.401 15.8256C168.075 15.8256 167 14.7273 167 13.4014C167 12.7645 167.253 12.1537 167.703 11.7034C168.153 11.253 168.764 11 169.401 11C170.038 11 170.649 11.253 171.099 11.7034C171.55 12.1537 171.803 12.7645 171.803 13.4014C171.803 14.7273 170.727 15.8256 169.401 15.8256ZM186.996 31H182.858V24.4999C182.858 22.9507 182.827 20.9641 180.702 20.9641C178.546 20.9641 178.216 22.6471 178.216 24.3882V31H174.074V17.647H178.051V19.4685H178.109C178.663 18.4194 180.015 17.3122 182.032 17.3122C186.229 17.3122 187 20.0756 187 23.665V31H186.996Z" fill="#18B5DC"/>
<rect x="0.5" y="-0.5" width="41.0045" height="41" transform="matrix(1 0 0 -1 208.002 41)" fill="white"/>
<rect x="0.5" y="-0.5" width="41.0045" height="41" transform="matrix(1 0 0 -1 208.002 41)" stroke="#18B5DC"/>
<path d="M238.55 14.4566L235.652 28.0342C235.434 28.9924 234.864 29.2309 234.054 28.7795L229.639 25.5469L227.509 27.5827C227.273 27.817 227.076 28.0129 226.622 28.0129L226.939 23.5452L235.121 16.1985C235.477 15.8833 235.044 15.7087 234.568 16.0239L224.453 22.3527L220.098 20.9984C219.151 20.7045 219.134 20.0571 220.295 19.6057L237.328 13.0852C238.117 12.7913 238.807 13.2598 238.55 14.4566Z" fill="#18B5DC"/>
</svg>
